<svg version="1.1" id="Layer_1" xmlns="http://www.w3.org/2000/svg" xmlns:xlink="http://www.w3.org/1999/xlink" x="0px" y="0px"
	 viewBox="0 0 18 18" style="enable-background:new 0 0 18 18;" xml:space="preserve">
<rect width="18" height="18" fill="white"/>
<path d="M271.689 170.018L238.204 189.352L222.324 161.847C212.4 144.665 187.601 144.665 177.676 161.847L161.797 189.352L128.311 170.018L173.204 66.467C185.113 45.8443 214.887 45.8443 226.797 66.467L271.689 170.018Z" fill="#6B91E0"/>
<path d="M187.111 277.85L187.111 316.517L74.9754 329.406C51.1692 329.406 36.2822 303.628 48.1918 283.005L115.422 192.343L148.908 211.677L133.028 239.182C123.103 256.376 135.503 277.85 155.352 277.85L187.111 277.85Z" fill="#F76D6D"/>
<path d="M325.012 329.406L212.889 316.516L212.889 277.849L244.648 277.849C264.497 277.849 276.897 256.376 266.972 239.182L251.093 211.676L284.578 192.342L351.808 283.005C363.718 303.627 348.831 329.406 325.012 329.406Z" fill="#FAB701"/>
</svg>


